<svg xmlns="http://www.w3.org/2000/svg" viewBox="0 0 358.69 129.68"><defs><style>.cls-1{fill:#ff971f;}</style></defs><g id="Слой_2" data-name="Слой 2"><g id="Слой_1-2" data-name="Слой 1"><path class="cls-1" d="M53.71,117.71c13.94-4.18,22.64-13.23,25.09-27.3,1.75-10,.66-19.93-5.6-28.63-1.76-2.44-3.11-5.19-4.89-7.62-1.53-2.1-1.73-4-.35-6.21.83-1.32,1.13-3,2.14-4.11.39.09.66.07.73.17,6.6,10.14,14.43,19.56,16.36,32.17,4.22,27.65-15.77,48-36.62,50.48C26.42,129.57,5.67,115.12.88,91.47-1.64,79.07,1.41,67.66,8.13,57,19.6,38.81,30.86,20.49,42.21,2.23,42.7,1.45,43,.51,44.36,0c2.34,3.79,4.74,7.59,7.06,11.44C55.76,18.62,60,25.9,64.43,33a5.22,5.22,0,0,1,0,6.4c-8,12.69-15.79,25.5-23.77,38.19-1.54,2.44-1.05,4.67-.1,6.94.76,1.8,2.39,2.3,4.25,2s2.11-1.56,2.23-3.13c.26-3.46,3.14-5.41,4.5-8.31a11,11,0,0,1,2.86,13.23,11.91,11.91,0,0,1-12.73,6.33c-9.75-2-12-14.65-8.09-20.69,7.23-11,13.89-22.46,21-33.56,2-3,2.13-5.3.1-8.32-3.68-5.45-6.94-11.18-10.3-16.67-1.4.18-1.61,1.12-2,1.8C32.65,32.76,22.49,48.11,13.3,64,6.42,75.94,6,88.8,12.88,101c6.65,11.82,17.31,17.44,30.81,17.81A35.81,35.81,0,0,0,53.71,117.71Z"/><path class="cls-1" d="M42.67,111.31C28.06,110.83,16,98.18,15.73,83.85c-.11-6.72,2-12.59,5.41-18.12C28.16,54.34,35.3,43,42.4,31.68a2.66,2.66,0,0,1,1.89-1.6c1.79,1.62,2.64,4.05,3.83,6.23.43.78-.23,1.42-.62,2-7,11-13.94,22-21,32.84-8.3,12.69-1.7,30.24,14.52,32.43,12.48,1.69,21.59-6.75,23.23-14.77,0-.28.24-.56.2-.82-.72-5.32,3.45-6.39,7.3-8.42a22.12,22.12,0,0,1-2.85,16.92C63,106.11,54.52,111.55,42.67,111.31Z"/><path class="cls-1" d="M66.94,71.26c-2.66,2.77-4.7,3.21-7.09,1.66-2.14-1.39-2.78-3.83-1.49-6.8,1-2.21,2.21-4.29,3.54-6.83,2.35,2.89,4.45,5.37,5.57,8.52A4,4,0,0,1,66.94,71.26Z"/><path class="cls-1" d="M168.09,129.68l4.9-35c1.11-7.62,2.75-18.16,4.55-27.32h-.33c-3.84,8.7-8.24,18.31-12.3,26.24l-18.33,35.2h-10l-3.93-34.65c-.87-8.34-1.54-17.89-2-26.79h-.23c-1.89,8.53-4.15,19.75-6,27.33l-8.6,35H104l19-74.45h17l4,34.79c.56,6.67,1.4,14.37,1.5,21.42h.38c2.66-7,6.26-14.85,9.46-21.33l18-34.88h17.25l-9.79,74.45Z"/><path class="cls-1" d="M240.29,96.57H213.58l-4.21,22.12h30.07l-2.1,11H194.4l14.13-74.45h41.31l-2.14,11H219.35l-3.74,19.49h26.8Z"/><path class="cls-1" d="M263.09,56.48A83.27,83.27,0,0,1,281,54.73c6.91,0,14.24,1.37,19.07,5.28,4.36,3.34,6.87,8.19,6.87,14.78A25.63,25.63,0,0,1,297.4,95c-5.92,4.79-14.49,7-23.24,7a48.65,48.65,0,0,1-7-.53l-5.37,28.19H249.19Zm6,34.4a30.76,30.76,0,0,0,6.73.64c10.91,0,18.15-6.89,18.15-15.7C294,67.9,288.32,65,281.12,65a31.69,31.69,0,0,0-7.17.63Z"/><path class="cls-1" d="M319.74,108.44,309.6,129.68H295.91l37.28-74.45H349.3l9.39,74.45H345.28l-2.17-21.24Zm22.68-10L340.32,80c-.36-4-.81-9.74-1.17-14.19h-.24c-2,4.5-3.91,9.77-6,14.13l-9,18.56Z"/></g></g></svg>