<svg id="Слой_1" data-name="Слой 1" xmlns="http://www.w3.org/2000/svg" viewBox="0 0 600 600"><defs><style>.cls-1{fill:#b60000;}.cls-2{opacity:0.15;font-size:519.06px;font-family:AgencyFB-Bold, Agency FB;font-weight:700;}.cls-2,.cls-3{fill:#fff;}</style></defs><rect class="cls-1" x="0.5" y="0.5" width="599" height="599"/><path d="M599,1V599H1V1H599m1-1H0V600H600V0Z"/><text class="cls-2" transform="translate(0 406.95)">163</text><path class="cls-3" d="M98.77,498.33V432.12h22.37a33.81,33.81,0,0,1,15.18,3.2,23.86,23.86,0,0,1,9.94,8.65,22.27,22.27,0,0,1,3.45,12.17,18.87,18.87,0,0,1-9.52,16.56,20,20,0,0,1-10,2.63h-7.78l.18-8.66h-2.07a15.82,15.82,0,0,0,6.31-1.17A9.21,9.21,0,0,0,131,462a10.52,10.52,0,0,0,1.52-5.78,9.51,9.51,0,0,0-1.38-5.15,9,9,0,0,0-4-3.41,14.59,14.59,0,0,0-6.1-1.19h-6.26v51.9Zm35.3,0-20-31.66h16.61l21.4,31.66Z"/><path class="cls-3" d="M178.8,499.44a25.34,25.34,0,0,1-12.61-3.2,23.43,23.43,0,0,1-9-8.86,26.16,26.16,0,0,1,0-25.4,23.69,23.69,0,0,1,9-8.88,26.2,26.2,0,0,1,25.17,0,24.08,24.08,0,0,1,9,8.88,25.74,25.74,0,0,1,0,25.36,24.08,24.08,0,0,1-9,8.88A25.2,25.2,0,0,1,178.8,499.44Zm0-12.43a8.52,8.52,0,0,0,5.06-1.49,9.2,9.2,0,0,0,3.22-4.28,17.67,17.67,0,0,0,1.11-6.56,18,18,0,0,0-1.13-6.74,8.94,8.94,0,0,0-3.22-4.21,9.76,9.76,0,0,0-10.17,0,8.94,8.94,0,0,0-3.22,4.21,18,18,0,0,0-1.13,6.74,17.27,17.27,0,0,0,1.13,6.54,9.5,9.5,0,0,0,3.27,4.28A8.55,8.55,0,0,0,178.84,487Z"/><path class="cls-3" d="M212.39,498.33V451h9.25l4.14,11.46,2.21-1.89v37.78Zm29.49-27.47a9.77,9.77,0,0,0-1.33-5.57,4.34,4.34,0,0,0-3.78-1.93,8.63,8.63,0,0,0-5.63,2.26,18.42,18.42,0,0,0-4.63,6.26l-1.7-10.54a23.43,23.43,0,0,1,8.08-8.79,18.35,18.35,0,0,1,9.45-2.67,15.59,15.59,0,0,1,8.7,2.21,12.55,12.55,0,0,1,4.88,6.23,27.61,27.61,0,0,1,1.52,9.69v30.32H241.88Zm29.5,0a9.67,9.67,0,0,0-1.34-5.53,4.29,4.29,0,0,0-3.72-1.93,8.62,8.62,0,0,0-5.73,2.26,18.73,18.73,0,0,0-4.58,6.26l-1.7-10.54a27.31,27.31,0,0,1,5.31-6.74,18.25,18.25,0,0,1,5.89-3.62,18.65,18.65,0,0,1,6.33-1.1,15.48,15.48,0,0,1,8.65,2.21,12.64,12.64,0,0,1,4.9,6.23,27,27,0,0,1,1.54,9.64v30.37H271.38Z"/><path class="cls-3" d="M308.79,499.48a16,16,0,0,1-7-1.45,11.5,11.5,0,0,1-4.8-4.16,11.2,11.2,0,0,1-1.78-6.3,13.57,13.57,0,0,1,3.32-9q3.32-3.93,9.94-6.56a65.86,65.86,0,0,1,16.33-3.77l.05,7.78a42.78,42.78,0,0,0-8.88,1.7,10.8,10.8,0,0,0-4.6,2.58,4.86,4.86,0,0,0-1.34,3.36,5.39,5.39,0,0,0,.44,2.3,2.85,2.85,0,0,0,1.42,1.38,6.24,6.24,0,0,0,2.56.46,11.07,11.07,0,0,0,5-1.18,27.18,27.18,0,0,0,5-3.24c.67-.55,1.3-1.09,1.89-1.61l3.12,7.5-.8.73-.76.74a55.23,55.23,0,0,1-6,4.63,27.14,27.14,0,0,1-6.12,3A21.39,21.39,0,0,1,308.79,499.48Zm31-30v28.8h-9.25l-4.1-11.45-2.21,1.88V469.62a11.14,11.14,0,0,0-.57-3.89,4.53,4.53,0,0,0-2-2.32,8.07,8.07,0,0,0-4-.83,22.06,22.06,0,0,0-5.4.67,33.17,33.17,0,0,0-5.13,1.7q-2.44,1-5.16,2.51L298,456.78A51.14,51.14,0,0,1,309,451.93a40.43,40.43,0,0,1,12.54-2.05q6.72,0,10.77,2.51a13.87,13.87,0,0,1,5.77,6.88A27.83,27.83,0,0,1,339.76,469.53Z"/><path class="cls-3" d="M351,498.33V451h9.25l4.15,11.46,2.2-1.89v37.78Zm31.11-27.74a8,8,0,0,0-1.59-5.41,5.74,5.74,0,0,0-4.58-1.82,9.42,9.42,0,0,0-3.7.76,11.69,11.69,0,0,0-3.5,2.46,28.32,28.32,0,0,0-3.7,4.79L363,461.48a42.71,42.71,0,0,1,5.59-6.42,19.61,19.61,0,0,1,6.21-3.87,21.26,21.26,0,0,1,7.75-1.36q5.76,0,9.14,2.37a12.45,12.45,0,0,1,4.72,6.19,27.26,27.26,0,0,1,1.33,9v31h-15.6Z"/><path class="cls-3" d="M430.78,499.44a25.34,25.34,0,0,1-12.61-3.2,23.43,23.43,0,0,1-9-8.86,26.16,26.16,0,0,1,0-25.4,23.69,23.69,0,0,1,9-8.88,26.2,26.2,0,0,1,25.17,0,24.08,24.08,0,0,1,9,8.88,25.74,25.74,0,0,1,0,25.36,24.08,24.08,0,0,1-9,8.88A25.2,25.2,0,0,1,430.78,499.44Zm0-12.43a8.52,8.52,0,0,0,5.06-1.49,9.2,9.2,0,0,0,3.22-4.28,17.67,17.67,0,0,0,1.11-6.56,18,18,0,0,0-1.13-6.74,8.94,8.94,0,0,0-3.22-4.21,9.76,9.76,0,0,0-10.17,0,8.94,8.94,0,0,0-3.22,4.21,18,18,0,0,0-1.13,6.74,17.27,17.27,0,0,0,1.13,6.54,9.5,9.5,0,0,0,3.27,4.28A8.55,8.55,0,0,0,430.82,487Z"/><path class="cls-3" d="M507.8,451l-17,47.35H474.72l-17-47.35h16.8l7.4,24.39,1.2,7.46,1.06-7.41L491.65,451Z"/><path class="cls-3" d="M381.58,575.94V525.35h13.47a27.94,27.94,0,0,1,13.37,3,19.87,19.87,0,0,1,8.49,8.67,29.3,29.3,0,0,1,2.92,13.58,29,29,0,0,1-3,13.66,20.29,20.29,0,0,1-8.68,8.69,28.91,28.91,0,0,1-13.64,3Zm13.22-2.74a24.56,24.56,0,0,0,11.79-2.66,17.86,17.86,0,0,0,7.58-7.73,29.72,29.72,0,0,0,.05-24.38,17.68,17.68,0,0,0-7.41-7.7,23.71,23.71,0,0,0-11.52-2.64H384.53V573.2Z"/><path class="cls-3" d="M431.82,575.94V525.35h27v2.74H434.74v20.53h18.14v2.68H434.74v21.9h26.61v2.74Z"/><path class="cls-3" d="M483.82,575.94,465,525.35h3.09l16.7,45.11.53,2.14.56-2.14,16.63-45.11h3.16l-18.84,50.59Z"/></svg>